arm26_elbow_motion
version=1
nRows=333
nColumns=2
inDegrees=no
endheader
time	r_elbow_flex
11.273775	2.09373695
11.323319	2.10610201
11.359626	2.11869575
11.423992	2.13121378
11.431062	2.14315403
11.455338	2.15942783
11.469911	2.17430811
11.489973	2.18866504
11.502088	2.20264483
11.511203	2.21632880
11.534243	2.22996596
11.544034	2.24310209
11.553161	2.25026795
11.561595	2.25666262
11.586586	2.26108975
11.594001	2.26335772
11.603253	2.26346646
11.620261	2.26154411
11.627757	2.25775449
11.654108	2.25238387
11.684850	2.24593106
11.701681	2.23877896
11.720054	2.23080611
11.730904	2.22196637
11.746406	2.21215477
11.771969	2.20139797
11.780188	2.18963062
11.789223	2.17698458
11.797773	2.16383908
11.813273	2.15018262
11.828822	2.13571585
11.854137	2.12065220
11.871926	2.10597986
11.888213	2.09162000
11.900593	2.07771768
11.938161	2.06314613
11.953139	2.04818637
11.961031	2.03368924
11.984805	2.01967822
12.000500	2.00508228
12.008825	1.99001945
12.029920	1.97405282
12.038439	1.95806522
12.047814	1.94284463
12.055934	1.92864791
12.070043	1.91549694
12.079501	1.90251221
12.098176	1.88866746
12.104147	1.87438614
12.122401	1.86107998
12.156193	1.84704844
12.171814	1.83122166
12.223120	1.81324921
12.241227	1.79413841
12.246710	1.77569904
12.255024	1.75719796
12.270448	1.73657647
12.302912	1.71389639
12.310118	1.68948306
12.319902	1.66461861
12.338233	1.63897040
12.346945	1.61094467
12.362808	1.58248126
12.396573	1.55546891
12.417301	1.52947484
12.424955	1.50272694
12.434938	1.47398380
12.457712	1.44593864
12.465525	1.41989793
12.473217	1.39187245
12.487958	1.35968699
12.493975	1.32567237
12.521314	1.29247221
12.539414	1.25937333
12.559898	1.22240015
12.584932	1.18144915
12.616153	1.14139746
12.632161	1.10356054
12.648052	1.06584479
12.663788	1.02775871
12.679438	0.99142390
12.695460	0.95889853
12.707421	0.92867683
12.717719	0.89675305
12.733592	0.86261562
12.749597	0.82870193
12.759848	0.79554540
12.783977	0.76193625
12.800543	0.72779450
12.817178	0.69511005
12.828599	0.66611756
12.839664	0.64176402
12.852857	0.62088684
12.870336	0.60317438
12.887443	0.58938154
12.920385	0.57957805
12.927218	0.57303877
12.952775	0.56913823
12.971116	0.56728856
12.979698	0.56750769
12.995300	0.56947435
13.005762	0.57304538
13.023041	0.57840425
13.030427	0.58530702
13.054045	0.59358100
13.062961	0.60338366
13.088474	0.61503416
13.120323	0.62869648
13.173382	0.64392763
13.192087	0.66019995
13.205798	0.67788238
13.232202	0.69774831
13.240410	0.71947395
13.258170	0.74222125
13.280602	0.76625359
13.297788	0.79253341
13.314966	0.82628996
13.321886	0.86212067
13.337886	0.90029908
13.345581	0.94173997
13.355562	0.98684134
13.364028	1.03401913
13.380636	1.08332771
13.421990	1.13156020
13.432346	1.18417934
13.449190	1.23978670
13.456902	1.29659645
13.465548	1.35342343
13.487653	1.41058235
13.504400	1.46668485
13.514225	1.51940733
13.529059	1.56808014
13.555165	1.61205258
13.564244	1.65120994
13.572755	1.68642001
13.597265	1.71823830
13.615023	1.74719491
13.624114	1.77388411
13.634475	1.79867348
13.647894	1.82237108
13.663763	1.84600741
13.680400	1.87041299
13.697727	1.89528815
13.712835	1.91956201
13.728747	1.94246021
13.773122	1.96442156
13.799306	1.98575101
13.812935	2.00568687
13.829018	2.02333688
13.837798	2.03888136
13.846610	2.05288874
13.887457	2.06661153
13.904084	2.07981784
13.920040	2.09191891
13.929767	2.10318208
13.943262	2.11381244
13.959020	2.12442021
13.972726	2.13520950
13.980285	2.14562215
13.987345	2.15567209
13.995924	2.16610326
14.020992	2.17691446
14.030589	2.18838435
14.039351	2.20010973
14.054346	2.21233338
14.076155	2.22487021
14.093320	2.23746344
14.104981	2.24953017
14.127446	2.26096445
14.136551	2.27120953
14.189007	2.28037122
14.197624	2.28808521
14.223426	2.29426677
14.249849	2.29889571
14.267052	2.30185733
14.283716	2.30308142
14.300444	2.30250315
14.311127	2.29984811
14.320591	2.29523069
14.329618	2.28856346
14.345286	2.27989333
14.370507	2.26970224
14.377564	2.25834309
14.398533	2.24646897
14.419036	2.23392037
14.437487	2.22070756
14.448813	2.20717613
14.465534	2.19389031
14.488029	2.18055885
14.496049	2.16679000
14.507659	2.15172896
14.522401	2.13672621
14.537784	2.12254719
14.547589	2.10835452
14.569011	2.09203562
14.604157	2.07512655
14.688874	2.05913438
14.716192	2.03774490
14.724830	2.01942932
14.740996	2.00066829
14.749040	1.98152787
14.759686	1.96324076
14.768719	1.94480317
14.786913	1.92560450
14.794859	1.91056764
14.820553	1.89082296
14.835756	1.86983568
14.844609	1.84924105
14.855946	1.82996944
14.868843	1.81062033
14.876696	1.79017534
14.902489	1.77128706
14.919070	1.75325731
14.929287	1.73489346
14.944641	1.71437619
14.987064	1.69096440
14.995301	1.66695099
15.011552	1.64271380
15.022103	1.61652154
15.036030	1.58809953
15.045642	1.55868027
15.062836	1.52993399
15.072486	1.50197546
15.079537	1.47206459
15.095336	1.43961245
15.106743	1.40681341
15.123590	1.37484485
15.153635	1.34180195
15.169706	1.30555261
15.188458	1.26642985
15.203784	1.22778844
15.285463	1.19134940
15.293820	1.14980478
15.316990	1.10776745
15.326723	1.06781130
15.337324	1.03273507
15.346001	1.00208758
15.361366	0.97299955
15.373193	0.94456056
15.380477	0.92324242
15.405102	0.90321935
15.419349	0.88364346
15.425164	0.86354560
15.450276	0.84355702
15.458755	0.82558670
15.474640	0.80936110
15.485520	0.79450894
15.498291	0.78118801
15.520524	0.76814416
15.536141	0.75410043
15.547536	0.73962081
15.557180	0.72537442
15.575811	0.71225938
15.593737	0.69984681
15.608013	0.68806844
15.626131	0.67846309
15.666726	0.67222937
15.678324	0.66817067
15.689113	0.66475864
15.720173	0.66138739
15.722871	0.65830299
15.750464	0.65617047
15.780069	0.65450879
15.797148	0.65263521
15.805835	0.65054931
15.813854	0.64856207
15.830710	0.64679510
15.838197	0.64568212
15.853613	0.64508882
15.870457	0.64456469
15.881087	0.64374510
15.898018	0.64293464
15.907262	0.64224080
15.930937	0.64173202
15.947088	0.64126339
15.964731	0.64061669
15.981702	0.63984845
15.990150	0.63927548
16.008390	0.63894606
16.113312	0.63881434
16.123093	0.63870277
16.130964	0.63858131
16.148093	0.63833484
16.156443	0.63809956
16.180136	0.63816363
16.196530	0.63823789
16.204539	0.63814031
16.224214	0.63827554
16.231712	0.63815844
16.235927	0.63772921
16.244063	0.63713685
16.301162	0.63663409
16.310466	0.63647398
16.338987	0.63652674
16.343539	0.63615779
16.359364	0.63609716
16.374725	0.63646780
16.387629	0.63714365
16.406958	0.63802321
16.412495	0.63906294
16.421865	0.64031619
16.425052	0.64196222
16.438608	0.64370051
16.451875	0.64561692
16.463139	0.64749646
16.470870	0.64924014
16.480699	0.65078735
16.508786	0.65209129
16.531347	0.65309157
16.544757	0.65388097
16.578666	0.65448543
16.615352	0.65503942
16.631013	0.65551490
16.647161	0.65596806
16.673641	0.65656732
16.687024	0.65722609
16.701452	0.65787280
16.720520	0.65851776
16.733596	0.65923851
16.742834	0.65999946
16.765717	0.66085184
16.781885	0.66158714
16.785475	0.66235736
16.802226	0.66331199
16.809557	0.66416048
16.834649	0.66490672
16.851353	0.66547544
16.868653	0.66601934
16.879241	0.66650619
16.901098	0.66685910
16.924823	0.66704224
16.937174	0.66744443
16.951382	0.66804314
